Coordinates
version=1
nRows=24
nColumns=38
inDegrees=no

Units are S.I. units (second, meters, Newtons, ...)
If the header above contains a line with 'inDegrees', this indicates whether rotational values are in degrees (yes) or radians (no).

endheader
time	pelvis_tilt	pelvis_list	pelvis_rotation	pelvis_tx	pelvis_ty	pelvis_tz	hip_flexion_r	hip_adduction_r	hip_rotation_r	knee_angle_r	ankle_angle_r	subtalar_angle_r	mtp_angle_r	hip_flexion_l	hip_adduction_l	hip_rotation_l	knee_angle_l	ankle_angle_l	subtalar_angle_l	mtp_angle_l	lumbar_extension	lumbar_bending	lumbar_rotation	arm_flex_r	arm_add_r	arm_rot_r	elbow_flex_r	pro_sup_r	wrist_flex_r	wrist_dev_r	arm_flex_l	arm_add_l	arm_rot_l	elbow_flex_l	pro_sup_l	wrist_flex_l	wrist_dev_l
1	0.0981655	0.101859	-0.0275876	0.756156	0.965862	-0.309371	0.418667	-0.15045	-0.0601564	-1.68639	-0.0444489	-0.0149002	-0.00521914	-0.023362	0.205714	0.0588696	-0.689304	0.449277	0.00093536	-0.0184272	-0.375502	-0.161781	-0.0923982	-0.501907	-0.26129	-0.127493	1.53168	1.34326	-0.0425677	-0.0936555	-0.0131737	-0.372138	0.0151244	1.62632	1.67831	0.0999999	-0.0920333
1.01	0.094714	0.0824397	-0.0244774	0.756858	0.969961	-0.308719	0.461131	-0.121239	-0.0670246	-1.62696	-0.0281227	-0.0149002	-0.00521914	-0.0970298	0.180529	0.0650652	-0.62477	0.411496	0.00093536	-0.0184272	-0.369717	-0.138024	-0.106061	-0.533724	-0.251956	-0.129612	1.5305	1.34195	-0.0425677	-0.0936555	0.0109314	-0.359305	0.0121123	1.64942	1.67899	0.0999999	-0.0920333
1.02	0.0890054	0.0610849	-0.0214166	0.758119	0.97434	-0.308043	0.498267	-0.0900921	-0.0763517	-1.55233	-0.013478	-0.0149002	-0.00521914	-0.167802	0.152228	0.0655271	-0.556814	0.35508	0.00093536	-0.0184272	-0.360525	-0.1118	-0.118182	-0.567629	-0.243316	-0.135154	1.53516	1.34211	-0.0425677	-0.0936555	0.0277071	-0.346563	0.00788107	1.67931	1.67785	0.0999999	-0.0920333
1.03	0.0811646	0.0387989	-0.0189403	0.759869	0.978818	-0.307286	0.529533	-0.0581269	-0.0869704	-1.46278	-0.000356172	-0.0149002	-0.00521914	-0.233768	0.122297	0.0595428	-0.489042	0.282067	0.00093536	-0.0184272	-0.348218	-0.084506	-0.128737	-0.602415	-0.235383	-0.143203	1.5441	1.34365	-0.0425677	-0.0936555	0.0378933	-0.334915	0.00381986	1.71444	1.67599	0.0999999	-0.0920333
1.04	0.071489	0.0167837	-0.0175171	0.761999	0.983225	-0.306403	0.554463	-0.0266406	-0.0975922	-1.35901	0.0115563	-0.0149002	-0.00521914	-0.293299	0.0924716	0.0471723	-0.425181	0.195629	0.00093536	-0.0184272	-0.333349	-0.057704	-0.137763	-0.636778	-0.228111	-0.152686	1.55571	1.34625	-0.0425677	-0.0936555	0.0425044	-0.325183	0.001163	1.75303	1.6747	0.0999999	-0.0920333
1.05	0.0604244	-0.00362634	-0.0174131	0.764363	0.987402	-0.305382	0.572739	0.00293545	-0.106979	-1.24245	0.0227601	-0.0149002	-0.00521914	-0.345071	0.0645936	0.0293975	-0.368982	0.099909	0.00093536	-0.0184272	-0.31669	-0.0329937	-0.145394	-0.669447	-0.221379	-0.162582	1.56851	1.3494	-0.0425677	-0.0936555	0.0427316	-0.317932	0.000888401	1.79327	1.67521	0.0999999	-0.0920333
1.06	0.0485548	-0.0210766	-0.0186074	0.766808	0.991209	-0.30426	0.584254	0.0291416	-0.114091	-1.11553	0.0338727	-0.0149002	-0.00521914	-0.388118	0.0404243	0.00809889	-0.324069	-0.000265243	0.00093536	-0.0184272	-0.299199	-0.011853	-0.151853	-0.699288	-0.214979	-0.172085	1.58128	1.35264	-0.0425677	-0.0936555	0.0398439	-0.313441	0.00367311	1.83335	1.67847	0.0999999	-0.0920333
1.07	0.0366208	-0.0343497	-0.020786	0.769197	0.994521	-0.303116	0.589189	0.0506443	-0.118215	-0.981888	0.0454742	-0.0149002	-0.00521914	-0.421871	0.0214264	-0.0141632	-0.293736	-0.0997755	0.00093536	-0.0184272	-0.281973	0.0045337	-0.157424	-0.72538	-0.208652	-0.180683	1.59318	1.3556	-0.0425677	-0.0936555	0.0350898	-0.311704	0.00988856	1.87163	1.68492	0.0999999	-0.0920333
1.08	0.025485	-0.0425644	-0.0234062	0.771413	0.997246	-0.302067	0.588045	0.0664165	-0.11908	-0.846382	0.0579301	-0.0149002	-0.00521914	-0.446191	0.00856635	-0.0345365	-0.280758	-0.193669	0.00093536	-0.0184272	-0.266212	0.015433	-0.162374	-0.747042	-0.202146	-0.188158	1.60374	1.35813	-0.0425677	-0.0936555	0.0296031	-0.312466	0.0196185	1.90671	1.6944	0.0999999	-0.0920333
1.09	0.0160615	-0.0453694	-0.0258212	0.773351	0.999326	-0.301228	0.581623	0.0759065	-0.116937	-0.714886	0.0712519	-0.0149002	-0.00521914	-0.461354	0.0021612	-0.0503623	-0.287222	-0.27761	0.00093536	-0.0184272	-0.253178	0.0206803	-0.166877	-0.763837	-0.195294	-0.194516	1.61288	1.36025	-0.0425677	-0.0936555	0.0243185	-0.315286	0.0326913	1.93744	1.70618	0.0999999	-0.0920333
1.1	0.00924494	-0.0430448	-0.027428	0.774877	1.00069	-0.300682	0.570934	0.0791678	-0.112567	-0.593815	0.0850379	-0.0149002	-0.00521914	-0.467995	0.00180004	-0.0596692	-0.314395	-0.348274	0.00093536	-0.0184272	-0.244111	0.0207341	-0.170929	-0.775557	-0.188089	-0.199896	1.62083	1.36208	-0.0425677	-0.0936555	0.0199069	-0.319604	0.0487235	1.963	1.71902	0.0999999	-0.0920333
1.11	0.00588296	-0.0364987	-0.0278054	0.775975	1.00142	-0.300464	0.55704	0.076934	-0.107134	-0.489407	0.0985126	-0.0149002	-0.00521914	-0.467022	0.00634994	-0.0616022	-0.3626	-0.403671	0.00093536	-0.0184272	-0.240107	0.0166417	-0.174292	-0.782186	-0.180733	-0.204476	1.62803	1.36382	-0.0425677	-0.0936555	0.0167368	-0.324821	0.0671676	1.98284	1.73143	0.0999999	-0.0920333
1.12	0.00662954	-0.0271673	-0.0268046	0.77663	1.00161	-0.300538	0.540884	0.0705907	-0.101903	-0.406925	0.110658	-0.0149002	-0.00521914	-0.459516	0.0140535	-0.0566762	-0.431125	-0.443356	0.00093536	-0.0184272	-0.242002	0.00989578	-0.176482	-0.78387	-0.173654	-0.208406	1.63502	1.36563	-0.0425677	-0.0936555	0.0148673	-0.330352	0.0873642	1.99668	1.74186	0.0999999	-0.0920333
1.13	0.0118264	-0.0168122	-0.0245734	0.776836	1.00131	-0.300799	0.523197	0.0620266	-0.0979188	-0.349951	0.120403	-0.0149002	-0.00521914	-0.446581	0.0227034	-0.0467514	-0.518196	-0.468414	0.00093536	-0.0184272	-0.2502	0.00221814	-0.176826	-0.780876	-0.167489	-0.211752	1.64232	1.36758	-0.0425677	-0.0936555	0.0140712	-0.335682	0.10859	2.00434	1.74905	0.0999999	-0.0920333
1.14	0.021381	-0.00726291	-0.0215074	0.776594	1.00052	-0.301095	0.504529	0.0533822	-0.0957866	-0.319956	0.126845	-0.0149002	-0.00521914	-0.429171	0.0298851	-0.034675	-0.621052	-0.481153	0.00093536	-0.0184272	-0.264517	-0.00468752	-0.174577	-0.773538	-0.163037	-0.214465	1.65033	1.36961	-0.0425677	-0.0936555	0.013886	-0.340382	0.130094	2.00578	1.75217	0.0999999	-0.0920333
1.15	0.0347044	-0.00016231	-0.018151	0.775926	0.999187	-0.301267	0.48534	0.0467506	-0.0956032	-0.316233	0.129509	-0.0149002	-0.00521914	-0.407926	0.0332701	-0.0236511	-0.736152	-0.484523	0.00093536	-0.0184272	-0.284097	-0.009361	-0.169051	-0.762195	-0.161172	-0.216355	1.65922	1.37148	-0.0425677	-0.0936555	0.0136911	-0.344118	0.151124	2.0009	1.75098	0.0999999	-0.0920333
1.16	0.050733	0.00322717	-0.0150695	0.774878	0.997208	-0.30119	0.466111	0.0438953	-0.0970389	-0.336191	0.128685	-0.0149002	-0.00521914	-0.383063	0.0309372	-0.0164825	-0.859488	-0.481381	0.00093536	-0.0184272	-0.307463	-0.0107454	-0.159772	-0.747107	-0.16275	-0.217098	1.66885	1.37286	-0.0425677	-0.0936555	0.0128061	-0.346631	0.170941	1.98959	1.7459	0.0999999	-0.0920333
1.17	0.0680728	0.00214865	-0.0127322	0.773522	0.994431	-0.300796	0.447368	0.0460289	-0.0994698	-0.375907	0.125799	-0.0149002	-0.00521914	-0.35439	0.0216911	-0.014903	-0.986936	-0.473851	0.00093536	-0.0184272	-0.332723	-0.00827193	-0.146573	-0.728387	-0.168488	-0.21626	1.67874	1.37332	-0.0425677	-0.0936555	0.0105986	-0.347715	0.188831	1.97163	1.73791	0.0999999	-0.0920333
1.18	0.0852251	-0.00360464	-0.0114233	0.771911	0.990825	-0.300099	0.42959	0.0536799	-0.10214	-0.430728	0.123554	-0.0149002	-0.00521914	-0.32141	0.00530635	-0.0191888	-1.11458	-0.463006	0.00093536	-0.0184272	-0.357875	-0.00186609	-0.129641	-0.705965	-0.178861	-0.213369	1.68813	1.37246	-0.0425677	-0.0936555	0.00657897	-0.347201	0.204146	1.94674	1.72849	0.0999999	-0.0920333
1.19	0.100845	-0.013698	-0.0111952	0.770123	0.986458	-0.29918	0.413012	0.0666453	-0.104336	-0.49574	0.125594	-0.0149002	-0.00521914	-0.2835	-0.0173591	-0.0281408	-1.23892	-0.448983	0.00093536	-0.0184272	-0.38112	0.00809697	-0.109506	-0.679631	-0.194008	-0.208016	1.69605	1.37006	-0.0425677	-0.0936555	0.000457616	-0.344969	0.21635	1.9147	1.71926	0.0999999	-0.0920333
1.2	0.113962	-0.0273113	-0.0118595	0.76824	0.981603	-0.298153	0.397377	0.0840125	-0.105548	-0.566014	0.135633	-0.0149002	-0.00521914	-0.240128	-0.0444194	-0.0394179	-1.35698	-0.431432	0.00093536	-0.0184272	-0.401135	0.0208595	-0.0869882	-0.649141	-0.213665	-0.199966	1.7015	1.36609	-0.0425677	-0.0936555	-0.00785288	-0.340982	0.225078	1.87547	1.71179	0.0999999	-0.0920333
1.21	0.12411	-0.0432188	-0.0130161	0.766317	0.976663	-0.297117	0.381765	0.104254	-0.105559	-0.636705	0.156369	-0.0149002	-0.00521914	-0.191043	-0.0731889	-0.0501101	-1.46627	-0.410066	0.00093536	-0.0184272	-0.41722	0.0353569	-0.0631234	-0.614381	-0.237165	-0.189264	1.70372	1.36078	-0.0425677	-0.0936555	-0.0182972	-0.335338	0.230168	1.82941	1.7072	0.0999999	-0.0920333
1.22	0.131335	-0.0598893	-0.0141226	0.764365	0.971995	-0.296152	0.364606	0.125397	-0.104406	-0.703177	0.188639	-0.0149002	-0.00521914	-0.13641	-0.100547	-0.0574031	-1.56474	-0.385075	0.00093536	-0.0184272	-0.429309	0.0502987	-0.0390603	-0.575551	-0.263484	-0.176315	1.70234	1.35462	-0.0425677	-0.0936555	-0.0307839	-0.328318	0.231647	1.77751	1.70603	0.0999999	-0.0920333
1.23	0.136051	-0.0756262	-0.0146082	0.762371	0.967827	-0.295349	0.343947	0.145281	-0.102236	-0.761257	0.231139	-0.0149002	-0.00521914	-0.0768542	-0.12341	-0.0592224	-1.65068	-0.35723	0.00093536	-0.0184272	-0.437832	0.0642683	-0.0159261	-0.533307	-0.291346	-0.161911	1.69762	1.34818	-0.0425677	-0.0936555	-0.0453083	-0.320401	0.229682	1.72152	1.70811	0.0999999	-0.0920333
